<?xml version="1.0" encoding="UTF-8"?>
<svg xmlns="http://www.w3.org/2000/svg" xmlns:xlink="http://www.w3.org/1999/xlink" width="512pt" height="512pt" viewBox="0 0 512 512">
<defs>
<filter id="filter-remove-color" x="0%" y="0%" width="100%" height="100%">
<feColorMatrix color-interpolation-filters="sRGB" values="0 0 0 0 1 0 0 0 0 1 0 0 0 0 1 0 0 0 1 0" />
</filter>
<mask id="mask-0">
<g filter="url(#filter-remove-color)">
<rect x="-51.2" y="-51.2" width="614.4" height="614.4" fill="rgb(0%, 0%, 0%)" fill-opacity="0.800003"/>
</g>
</mask>
<clipPath id="clip-0">
<path clip-rule="nonzero" d="M 0 0.226562 L 171.757812 0.226562 L 171.757812 94.964844 L 0 94.964844 Z M 0 0.226562 "/>
</clipPath>
<clipPath id="clip-1">
<rect x="0" y="0" width="172" height="95"/>
</clipPath>
<g id="source-5" clip-path="url(#clip-1)">
<g clip-path="url(#clip-0)">
<path fill-rule="nonzero" fill="rgb(64.706421%, 39.99939%, 67.059326%)" fill-opacity="1" d="M 0 75.246094 C 21.683594 7.117188 111.769531 -22.15625 171.757812 19.4375 C 147.671875 88.347656 57.589844 117.617188 0 75.246094 "/>
</g>
</g>
<mask id="mask-1">
<g filter="url(#filter-remove-color)">
<rect x="-51.2" y="-51.2" width="614.4" height="614.4" fill="rgb(0%, 0%, 0%)" fill-opacity="0.600006"/>
</g>
</mask>
<clipPath id="clip-2">
<path clip-rule="nonzero" d="M 0.941406 0.242188 L 116.644531 0.242188 L 116.644531 146.351562 L 0.941406 146.351562 Z M 0.941406 0.242188 "/>
</clipPath>
<clipPath id="clip-3">
<rect x="0" y="0" width="117" height="147"/>
</clipPath>
<g id="source-8" clip-path="url(#clip-3)">
<g clip-path="url(#clip-2)">
<path fill-rule="nonzero" fill="rgb(64.706421%, 39.99939%, 67.059326%)" fill-opacity="1" d="M 6 0.246094 C 77.496094 -0.183594 133.171875 76.445312 112.152344 146.351562 C 39.171875 144.738281 -16.503906 68.109375 6 0.246094 "/>
</g>
</g>
<mask id="mask-2">
<g filter="url(#filter-remove-color)">
<rect x="-51.2" y="-51.2" width="614.4" height="614.4" fill="rgb(0%, 0%, 0%)" fill-opacity="0.449997"/>
</g>
</mask>
<clipPath id="clip-4">
<path clip-rule="nonzero" d="M 0.355469 0.242188 L 116.058594 0.242188 L 116.058594 146.351562 L 0.355469 146.351562 Z M 0.355469 0.242188 "/>
</clipPath>
<clipPath id="clip-5">
<rect x="0" y="0" width="117" height="147"/>
</clipPath>
<g id="source-11" clip-path="url(#clip-5)">
<g clip-path="url(#clip-4)">
<path fill-rule="nonzero" fill="rgb(64.706421%, 39.99939%, 67.059326%)" fill-opacity="1" d="M 111 0.246094 C 133.503906 68.109375 77.828125 144.738281 4.847656 146.351562 C -16.171875 76.445312 39.503906 -0.183594 111 0.246094 "/>
</g>
</g>
<mask id="mask-3">
<g filter="url(#filter-remove-color)">
<rect x="-51.2" y="-51.2" width="614.4" height="614.4" fill="rgb(0%, 0%, 0%)" fill-opacity="0.300003"/>
</g>
</mask>
<clipPath id="clip-6">
<path clip-rule="nonzero" d="M 0.242188 0.226562 L 172 0.226562 L 172 94.964844 L 0.242188 94.964844 Z M 0.242188 0.226562 "/>
</clipPath>
<clipPath id="clip-7">
<rect x="0" y="0" width="172" height="95"/>
</clipPath>
<g id="source-14" clip-path="url(#clip-7)">
<g clip-path="url(#clip-6)">
<path fill-rule="nonzero" fill="rgb(64.706421%, 39.99939%, 67.059326%)" fill-opacity="1" d="M 172 75.246094 C 114.410156 117.617188 24.328125 88.347656 0.242188 19.4375 C 60.230469 -22.15625 150.316406 7.117188 172 75.246094 "/>
</g>
</g>
</defs>
<path fill-rule="nonzero" fill="rgb(93.333435%, 85.882568%, 98.431396%)" fill-opacity="1" d="M 110.824219 23.824219 L 401.175781 23.824219 C 449.222656 23.824219 488.175781 62.773438 488.175781 110.824219 L 488.175781 401.175781 C 488.175781 449.222656 449.222656 488.175781 401.175781 488.175781 L 110.824219 488.175781 C 62.773438 488.175781 23.824219 449.222656 23.824219 401.175781 L 23.824219 110.824219 C 23.824219 62.773438 62.773438 23.824219 110.824219 23.824219 "/>
<path fill-rule="nonzero" fill="rgb(64.706421%, 39.99939%, 67.059326%)" fill-opacity="1" d="M 256 273.246094 C 197.90625 231.570312 197.90625 136.847656 256 92.648438 C 314.09375 136.847656 314.09375 231.570312 256 273.246094 "/>
<g mask="url(#mask-0)">
<use xlink:href="#source-5" transform="matrix(1, 0, 0, 1, 256, 198)"/>
</g>
<g mask="url(#mask-1)">
<use xlink:href="#source-8" transform="matrix(1, 0, 0, 1, 250, 273)"/>
</g>
<g mask="url(#mask-2)">
<use xlink:href="#source-11" transform="matrix(1, 0, 0, 1, 145, 273)"/>
</g>
<g mask="url(#mask-3)">
<use xlink:href="#source-14" transform="matrix(1, 0, 0, 1, 84, 198)"/>
</g>
<path fill-rule="nonzero" fill="rgb(97.254944%, 95.294189%, 98.431396%)" fill-opacity="1" d="M 256 231.570312 C 279.015625 231.570312 297.675781 250.226562 297.675781 273.246094 C 297.675781 296.261719 279.015625 314.921875 256 314.921875 C 232.984375 314.921875 214.324219 296.261719 214.324219 273.246094 C 214.324219 250.226562 232.984375 231.570312 256 231.570312 "/>
</svg>
